<svg width="150" height="19" viewBox="0 0 150 19" fill="none" xmlns="http://www.w3.org/2000/svg">
<path d="M4.80003 17.832C4.56003 17.832 4.37603 17.776 4.24803 17.664C4.13603 17.536 4.05603 17.392 4.00803 17.232L0.528028 6.12C0.512028 6.04 0.504028 5.968 0.504028 5.904C0.504028 5.76 0.552028 5.632 0.648028 5.52C0.760028 5.408 0.896028 5.352 1.05603 5.352H4.15203C4.37603 5.352 4.55203 5.416 4.68003 5.544C4.80803 5.656 4.88003 5.768 4.89603 5.88L6.64803 11.808L8.49603 5.904C8.52803 5.792 8.60803 5.672 8.73603 5.544C8.86403 5.416 9.04803 5.352 9.28803 5.352H11.184C11.424 5.352 11.608 5.416 11.736 5.544C11.864 5.672 11.944 5.792 11.976 5.904L13.824 11.808L15.576 5.88C15.608 5.768 15.688 5.656 15.816 5.544C15.944 5.416 16.12 5.352 16.344 5.352H19.44C19.584 5.352 19.712 5.408 19.824 5.52C19.936 5.632 19.992 5.76 19.992 5.904C19.992 5.968 19.984 6.04 19.968 6.12L16.488 17.232C16.424 17.392 16.336 17.536 16.224 17.664C16.112 17.776 15.936 17.832 15.696 17.832H13.008C12.768 17.832 12.584 17.776 12.456 17.664C12.344 17.536 12.256 17.392 12.192 17.232L10.248 11.52L8.28003 17.232C8.23203 17.392 8.14403 17.536 8.01603 17.664C7.90403 17.776 7.72803 17.832 7.48803 17.832H4.80003Z" fill="#14B8A6"/>
<path d="M24.1677 18.072C23.2877 18.072 22.4957 17.904 21.7917 17.568C21.1037 17.232 20.5597 16.784 20.1597 16.224C19.7757 15.648 19.5837 15.008 19.5837 14.304C19.5837 13.152 20.0477 12.248 20.9757 11.592C21.9197 10.92 23.1757 10.456 24.7437 10.2L27.5037 9.768V9.6C27.5037 9.104 27.4237 8.736 27.2637 8.496C27.1197 8.24 26.8077 8.112 26.3277 8.112C25.9917 8.112 25.7197 8.176 25.5117 8.304C25.3037 8.432 25.1117 8.616 24.9357 8.856C24.7757 9.032 24.5677 9.12 24.3117 9.12H20.9277C20.7517 9.12 20.6157 9.072 20.5197 8.976C20.4237 8.88 20.3837 8.752 20.3997 8.592C20.4157 8.304 20.5357 7.968 20.7597 7.584C20.9837 7.184 21.3277 6.8 21.7917 6.432C22.2717 6.048 22.8877 5.736 23.6397 5.496C24.3917 5.24 25.2957 5.112 26.3517 5.112C27.4237 5.112 28.3437 5.232 29.1117 5.472C29.8797 5.712 30.5117 6.048 31.0077 6.48C31.5037 6.912 31.8717 7.44 32.1117 8.064C32.3517 8.672 32.4717 9.352 32.4717 10.104V17.208C32.4717 17.384 32.4077 17.536 32.2797 17.664C32.1677 17.776 32.0237 17.832 31.8477 17.832H28.3437C28.1837 17.832 28.0397 17.776 27.9117 17.664C27.7837 17.536 27.7197 17.384 27.7197 17.208V16.44C27.5117 16.76 27.2317 17.04 26.8797 17.28C26.5437 17.52 26.1437 17.712 25.6797 17.856C25.2317 18 24.7277 18.072 24.1677 18.072ZM25.5597 14.928C25.9597 14.928 26.3037 14.848 26.5917 14.688C26.8957 14.512 27.1357 14.248 27.3117 13.896C27.4877 13.544 27.5757 13.104 27.5757 12.576V12.408L25.8477 12.744C25.2557 12.856 24.8397 13.024 24.5997 13.248C24.3597 13.456 24.2397 13.688 24.2397 13.944C24.2397 14.136 24.2957 14.304 24.4077 14.448C24.5197 14.592 24.6717 14.712 24.8637 14.808C25.0717 14.888 25.3037 14.928 25.5597 14.928Z" fill="#14B8A6"/>
<path d="M34.5223 17.832C34.3463 17.832 34.1943 17.776 34.0663 17.664C33.9543 17.536 33.8983 17.384 33.8983 17.208V1.416C33.8983 1.24 33.9543 1.096 34.0663 0.984C34.1943 0.856 34.3463 0.792 34.5223 0.792H38.0983C38.2583 0.792 38.4023 0.856 38.5303 0.984C38.6583 1.096 38.7223 1.24 38.7223 1.416V17.208C38.7223 17.384 38.6583 17.536 38.5303 17.664C38.4023 17.776 38.2583 17.832 38.0983 17.832H34.5223Z" fill="#14B8A6"/>
<path d="M40.8748 17.832C40.6988 17.832 40.5468 17.776 40.4188 17.664C40.3068 17.536 40.2508 17.384 40.2508 17.208V1.416C40.2508 1.24 40.3068 1.096 40.4188 0.984C40.5468 0.856 40.6988 0.792 40.8748 0.792H44.3548C44.5308 0.792 44.6748 0.856 44.7868 0.984C44.9148 1.096 44.9788 1.24 44.9788 1.416V9.336L47.7148 5.76C47.7788 5.68 47.8668 5.592 47.9788 5.496C48.0908 5.4 48.2508 5.352 48.4588 5.352H52.4908C52.6508 5.352 52.7788 5.408 52.8748 5.52C52.9868 5.616 53.0428 5.744 53.0428 5.904C53.0428 5.968 53.0268 6.04 52.9948 6.12C52.9788 6.2 52.9468 6.256 52.8988 6.288L49.0828 10.968L53.4988 16.92C53.5788 17.048 53.6188 17.168 53.6188 17.28C53.6188 17.44 53.5628 17.576 53.4508 17.688C53.3548 17.784 53.2268 17.832 53.0668 17.832H48.8908C48.6508 17.832 48.4748 17.784 48.3628 17.688C48.2668 17.576 48.1788 17.488 48.0988 17.424L44.9788 13.104V17.208C44.9788 17.384 44.9148 17.536 44.7868 17.664C44.6748 17.776 44.5308 17.832 44.3548 17.832H40.8748Z" fill="#14B8A6"/>
<path d="M54.657 17.832C54.481 17.832 54.329 17.776 54.201 17.664C54.089 17.536 54.033 17.384 54.033 17.208V5.976C54.033 5.8 54.089 5.656 54.201 5.544C54.329 5.416 54.481 5.352 54.657 5.352H58.209C58.385 5.352 58.537 5.416 58.665 5.544C58.793 5.656 58.857 5.8 58.857 5.976V17.208C58.857 17.384 58.793 17.536 58.665 17.664C58.537 17.776 58.385 17.832 58.209 17.832H54.657ZM54.705 3.792C54.529 3.792 54.377 3.736 54.249 3.624C54.137 3.496 54.081 3.344 54.081 3.168V0.648C54.081 0.472 54.137 0.32 54.249 0.192C54.377 0.0640001 54.529 0 54.705 0H58.161C58.337 0 58.489 0.0640001 58.617 0.192C58.745 0.32 58.809 0.472 58.809 0.648V3.168C58.809 3.344 58.745 3.496 58.617 3.624C58.489 3.736 58.337 3.792 58.161 3.792H54.705Z" fill="#14B8A6"/>
<path d="M66.6462 18.072C64.6462 18.072 63.0542 17.56 61.8702 16.536C60.7022 15.496 60.1022 13.912 60.0702 11.784C60.0702 11.72 60.0702 11.64 60.0702 11.544C60.0702 11.432 60.0702 11.352 60.0702 11.304C60.1182 9.976 60.4062 8.856 60.9342 7.944C61.4782 7.016 62.2302 6.312 63.1902 5.832C64.1662 5.352 65.3102 5.112 66.6222 5.112C68.0942 5.112 69.3102 5.408 70.2702 6C71.2462 6.576 71.9742 7.352 72.4542 8.328C72.9342 9.288 73.1742 10.368 73.1742 11.568V12.24C73.1742 12.4 73.1102 12.544 72.9822 12.672C72.8542 12.8 72.7022 12.864 72.5262 12.864H65.1342C65.1342 12.864 65.1342 12.88 65.1342 12.912C65.1342 12.944 65.1342 12.976 65.1342 13.008C65.1342 13.392 65.1822 13.736 65.2782 14.04C65.3902 14.328 65.5582 14.56 65.7822 14.736C66.0062 14.896 66.2782 14.976 66.5982 14.976C66.8062 14.976 66.9822 14.944 67.1262 14.88C67.2702 14.816 67.3902 14.736 67.4862 14.64C67.5982 14.528 67.6942 14.424 67.7742 14.328C67.9182 14.184 68.0382 14.096 68.1342 14.064C68.2302 14.016 68.3742 13.992 68.5662 13.992H72.3342C72.4782 13.992 72.5982 14.04 72.6942 14.136C72.8062 14.232 72.8542 14.352 72.8382 14.496C72.8222 14.784 72.6862 15.136 72.4302 15.552C72.1742 15.952 71.7902 16.344 71.2782 16.728C70.7822 17.112 70.1422 17.432 69.3582 17.688C68.5742 17.944 67.6702 18.072 66.6462 18.072ZM65.1342 10.176H68.1102V10.128C68.1102 9.696 68.0542 9.328 67.9422 9.024C67.8302 8.72 67.6622 8.496 67.4382 8.352C67.2142 8.192 66.9422 8.112 66.6222 8.112C66.3022 8.112 66.0302 8.192 65.8062 8.352C65.5822 8.496 65.4142 8.72 65.3022 9.024C65.1902 9.328 65.1342 9.696 65.1342 10.128V10.176Z" fill="#14B8A6"/>
<path d="M92.2422 17.832C91.1542 17.832 90.1942 17.672 89.3622 17.352C88.5462 17.032 87.9062 16.512 87.4422 15.792C86.9942 15.056 86.7702 14.088 86.7702 12.888V9.024H84.8742C84.6982 9.024 84.5462 8.968 84.4182 8.856C84.3062 8.728 84.2502 8.576 84.2502 8.4V5.976C84.2502 5.8 84.3062 5.656 84.4182 5.544C84.5462 5.416 84.6982 5.352 84.8742 5.352H86.7702V1.416C86.7702 1.24 86.8262 1.096 86.9382 0.984C87.0662 0.856 87.2182 0.792 87.3942 0.792H90.8742C91.0502 0.792 91.1942 0.856 91.3062 0.984C91.4342 1.096 91.4982 1.24 91.4982 1.416V5.352H94.5222C94.6982 5.352 94.8422 5.416 94.9542 5.544C95.0822 5.656 95.1462 5.8 95.1462 5.976V8.4C95.1462 8.576 95.0822 8.728 94.9542 8.856C94.8422 8.968 94.6982 9.024 94.5222 9.024H91.4982V12.48C91.4982 12.944 91.5942 13.312 91.7862 13.584C91.9782 13.84 92.2822 13.968 92.6982 13.968H94.7142C94.8902 13.968 95.0342 14.032 95.1462 14.16C95.2742 14.272 95.3382 14.416 95.3382 14.592V17.208C95.3382 17.384 95.2742 17.536 95.1462 17.664C95.0342 17.776 94.8902 17.832 94.7142 17.832H92.2422Z" fill="#14B8A6"/>
<path d="M100.09 18.072C99.2102 18.072 98.4182 17.904 97.7142 17.568C97.0262 17.232 96.4822 16.784 96.0822 16.224C95.6982 15.648 95.5062 15.008 95.5062 14.304C95.5062 13.152 95.9702 12.248 96.8982 11.592C97.8422 10.92 99.0982 10.456 100.666 10.2L103.426 9.768V9.6C103.426 9.104 103.346 8.736 103.186 8.496C103.042 8.24 102.73 8.112 102.25 8.112C101.914 8.112 101.642 8.176 101.434 8.304C101.226 8.432 101.034 8.616 100.858 8.856C100.698 9.032 100.49 9.12 100.234 9.12H96.8502C96.6742 9.12 96.5382 9.072 96.4422 8.976C96.3462 8.88 96.3062 8.752 96.3222 8.592C96.3382 8.304 96.4582 7.968 96.6822 7.584C96.9062 7.184 97.2502 6.8 97.7142 6.432C98.1942 6.048 98.8102 5.736 99.5622 5.496C100.314 5.24 101.218 5.112 102.274 5.112C103.346 5.112 104.266 5.232 105.034 5.472C105.802 5.712 106.434 6.048 106.93 6.48C107.426 6.912 107.794 7.44 108.034 8.064C108.274 8.672 108.394 9.352 108.394 10.104V17.208C108.394 17.384 108.33 17.536 108.202 17.664C108.09 17.776 107.946 17.832 107.77 17.832H104.266C104.106 17.832 103.962 17.776 103.834 17.664C103.706 17.536 103.642 17.384 103.642 17.208V16.44C103.434 16.76 103.154 17.04 102.802 17.28C102.466 17.52 102.066 17.712 101.602 17.856C101.154 18 100.65 18.072 100.09 18.072ZM101.482 14.928C101.882 14.928 102.226 14.848 102.514 14.688C102.818 14.512 103.058 14.248 103.234 13.896C103.41 13.544 103.498 13.104 103.498 12.576V12.408L101.77 12.744C101.178 12.856 100.762 13.024 100.522 13.248C100.282 13.456 100.162 13.688 100.162 13.944C100.162 14.136 100.218 14.304 100.33 14.448C100.442 14.592 100.594 14.712 100.786 14.808C100.994 14.888 101.226 14.928 101.482 14.928Z" fill="#14B8A6"/>
<path d="M110.445 17.832C110.269 17.832 110.117 17.776 109.989 17.664C109.877 17.536 109.821 17.384 109.821 17.208V1.416C109.821 1.24 109.877 1.096 109.989 0.984C110.117 0.856 110.269 0.792 110.445 0.792H114.021C114.181 0.792 114.325 0.856 114.453 0.984C114.581 1.096 114.645 1.24 114.645 1.416V17.208C114.645 17.384 114.581 17.536 114.453 17.664C114.325 17.776 114.181 17.832 114.021 17.832H110.445Z" fill="#14B8A6"/>
<path d="M116.797 17.832C116.621 17.832 116.469 17.776 116.341 17.664C116.229 17.536 116.173 17.384 116.173 17.208V1.416C116.173 1.24 116.229 1.096 116.341 0.984C116.469 0.856 116.621 0.792 116.797 0.792H120.277C120.453 0.792 120.597 0.856 120.709 0.984C120.837 1.096 120.901 1.24 120.901 1.416V9.336L123.637 5.76C123.701 5.68 123.789 5.592 123.901 5.496C124.013 5.4 124.173 5.352 124.381 5.352H128.413C128.573 5.352 128.701 5.408 128.797 5.52C128.909 5.616 128.965 5.744 128.965 5.904C128.965 5.968 128.949 6.04 128.917 6.12C128.901 6.2 128.869 6.256 128.821 6.288L125.005 10.968L129.421 16.92C129.501 17.048 129.541 17.168 129.541 17.28C129.541 17.44 129.485 17.576 129.373 17.688C129.277 17.784 129.149 17.832 128.989 17.832H124.813C124.573 17.832 124.397 17.784 124.285 17.688C124.189 17.576 124.101 17.488 124.021 17.424L120.901 13.104V17.208C120.901 17.384 120.837 17.536 120.709 17.664C120.597 17.776 120.453 17.832 120.277 17.832H116.797Z" fill="#14B8A6"/>
<path d="M130.58 17.832C130.404 17.832 130.252 17.776 130.124 17.664C130.012 17.536 129.956 17.384 129.956 17.208V5.976C129.956 5.8 130.012 5.656 130.124 5.544C130.252 5.416 130.404 5.352 130.58 5.352H134.132C134.308 5.352 134.46 5.416 134.588 5.544C134.716 5.656 134.78 5.8 134.78 5.976V17.208C134.78 17.384 134.716 17.536 134.588 17.664C134.46 17.776 134.308 17.832 134.132 17.832H130.58ZM130.628 3.792C130.452 3.792 130.3 3.736 130.172 3.624C130.06 3.496 130.004 3.344 130.004 3.168V0.648C130.004 0.472 130.06 0.32 130.172 0.192C130.3 0.0640001 130.452 0 130.628 0H134.084C134.26 0 134.412 0.0640001 134.54 0.192C134.668 0.32 134.732 0.472 134.732 0.648V3.168C134.732 3.344 134.668 3.496 134.54 3.624C134.412 3.736 134.26 3.792 134.084 3.792H130.628Z" fill="#14B8A6"/>
<path d="M142.569 18.072C140.569 18.072 138.977 17.56 137.793 16.536C136.625 15.496 136.025 13.912 135.993 11.784C135.993 11.72 135.993 11.64 135.993 11.544C135.993 11.432 135.993 11.352 135.993 11.304C136.041 9.976 136.329 8.856 136.857 7.944C137.401 7.016 138.153 6.312 139.113 5.832C140.089 5.352 141.233 5.112 142.545 5.112C144.017 5.112 145.233 5.408 146.193 6C147.169 6.576 147.897 7.352 148.377 8.328C148.857 9.288 149.097 10.368 149.097 11.568V12.24C149.097 12.4 149.033 12.544 148.905 12.672C148.777 12.8 148.625 12.864 148.449 12.864H141.057C141.057 12.864 141.057 12.88 141.057 12.912C141.057 12.944 141.057 12.976 141.057 13.008C141.057 13.392 141.105 13.736 141.201 14.04C141.313 14.328 141.481 14.56 141.705 14.736C141.929 14.896 142.201 14.976 142.521 14.976C142.729 14.976 142.905 14.944 143.049 14.88C143.193 14.816 143.313 14.736 143.409 14.64C143.521 14.528 143.617 14.424 143.697 14.328C143.841 14.184 143.961 14.096 144.057 14.064C144.153 14.016 144.297 13.992 144.489 13.992H148.257C148.401 13.992 148.521 14.04 148.617 14.136C148.729 14.232 148.777 14.352 148.761 14.496C148.745 14.784 148.609 15.136 148.353 15.552C148.097 15.952 147.713 16.344 147.201 16.728C146.705 17.112 146.065 17.432 145.281 17.688C144.497 17.944 143.593 18.072 142.569 18.072ZM141.057 10.176H144.033V10.128C144.033 9.696 143.977 9.328 143.865 9.024C143.753 8.72 143.585 8.496 143.361 8.352C143.137 8.192 142.865 8.112 142.545 8.112C142.225 8.112 141.953 8.192 141.729 8.352C141.505 8.496 141.337 8.72 141.225 9.024C141.113 9.328 141.057 9.696 141.057 10.128V10.176Z" fill="#14B8A6"/>
<path d="M82.5 11.332C82.5 13.265 80.933 14.832 79 14.832C77.067 14.832 75.5 13.265 75.5 11.332C75.5 9.399 77.067 7.832 79 7.832C80.933 7.832 82.5 9.399 82.5 11.332Z" fill="#14B8A6"/>
</svg>
